<?xml version="1.0" encoding="UTF-8" standalone="no"?>
<svg
   inkscape:version="1.1 (c68e22c387, 2021-05-23)"
   height="1080"
   width="2134.3647"
   sodipodi:docname="Logo_de_la_UAM.svg"
   xml:space="preserve"
   viewBox="0 0 2134.3647 1080"
   y="0px"
   x="0px"
   id="Capa_1"
   version="1.1"
   xmlns:inkscape="http://www.inkscape.org/namespaces/inkscape"
   xmlns:sodipodi="http://sodipodi.sourceforge.net/DTD/sodipodi-0.dtd"
   xmlns="http://www.w3.org/2000/svg"
   xmlns:svg="http://www.w3.org/2000/svg"
   xmlns:rdf="http://www.w3.org/1999/02/22-rdf-syntax-ns#"
   xmlns:cc="http://creativecommons.org/ns#"
   xmlns:dc="http://purl.org/dc/elements/1.1/"><metadata
   id="metadata89"><rdf:RDF><cc:Work
       rdf:about=""><dc:format>image/svg+xml</dc:format><dc:type
         rdf:resource="http://purl.org/dc/dcmitype/StillImage" /></cc:Work></rdf:RDF></metadata><defs
   id="defs87" /><sodipodi:namedview
   inkscape:current-layer="Capa_1"
   inkscape:window-maximized="1"
   inkscape:window-y="-8"
   inkscape:window-x="1912"
   inkscape:cy="197.65449"
   inkscape:cx="1133.488"
   inkscape:zoom="0.37186102"
   fit-margin-bottom="0"
   fit-margin-right="0"
   fit-margin-left="0"
   fit-margin-top="0"
   showgrid="false"
   id="namedview85"
   inkscape:window-height="1017"
   inkscape:window-width="1920"
   inkscape:pageshadow="2"
   inkscape:pageopacity="0"
   guidetolerance="10"
   gridtolerance="10"
   objecttolerance="10"
   borderopacity="1"
   bordercolor="#666666"
   pagecolor="#ffffff"
   inkscape:pagecheckerboard="0" />
<style
   id="style2"
   type="text/css">
	.st0{fill:#FEFEFE;}
	.st1{fill:#1A171B;}
	.st2{fill:#1A181C;}
	.st3{fill:#1B181C;}
	.st4{fill:#1D1B1F;}
	.st5{fill:#1C1A1E;}
	.st6{fill:#FDFDFD;}
	.st7{fill:#FCFCFC;}
	.st8{fill:#FCFBFC;}
</style>
<g
   transform="matrix(2.113475,0,0,2.113475,-932.16069,-584.71399)"
   id="g82">
	<g
   id="g80">
		
		<path
   id="path6"
   style="stroke-width:2.11348"
   class="st1"
   d="M 829.99219 0 C 817.50155 1.4160283 806.65936 6.4884105 797.40234 14.878906 C 786.83497 24.452948 779.3108 36.161586 773.54102 49.117188 C 767.72896 62.136194 762.61375 75.471807 755.32227 88.998047 C 745.24099 66.36273 735.75079 44.699119 725.88086 23.205078 C 722.20341 15.173873 720.3874 6.0237534 712.99023 0.021484375 L 450.8125 0.021484375 C 431.72782 43.47453 412.81165 87.033837 393.51562 130.40234 C 298.66287 343.52516 203.72656 556.58281 108.68359 769.62109 C 105.2809 777.2296 104.49938 780.35868 115.08789 780.31641 C 195.252 779.91485 275.41597 779.95712 355.58008 780.31641 C 363.54788 780.33754 366.78137 777.3153 369.74023 770.63672 C 418.56151 660.46127 467.59328 550.39169 516.5625 440.30078 C 538.16221 391.75426 559.82679 343.20739 582.06055 293.28711 C 595.3543 323.10824 607.90678 351.72541 620.92578 380.10938 C 624.03259 386.85136 624.15919 392.32436 621.03125 399.29883 C 565.99636 522.36648 511.25783 645.56105 456.47656 768.73438 C 451.44649 780.04147 451.46707 780.0625 463.4082 780.0625 C 542.13515 780.08363 620.84142 779.87293 699.56836 780.33789 C 709.37488 780.40129 713.96102 777.59059 717.74414 768.54492 C 729.5162 740.39343 742.43071 712.70633 755.59766 683.26562 C 763.56546 701.01881 770.39184 717.20683 778.02148 733.01562 C 791.48432 760.85009 811.81641 779.95773 844.63867 780 C 987.63639 780.23248 1130.6331 780.10512 1273.6309 780.08398 C 1296.076 780.08398 1313.8507 770.48899 1327.9688 753.41211 C 1338.2402 740.98488 1343.5018 725.9785 1350.2227 711.69141 C 1354.3439 702.89935 1357.1548 693.38942 1363.5586 684.34375 C 1376.7889 714.16488 1389.6189 742.65413 1402.0039 771.33398 C 1404.7726 777.73781 1408.0476 780.33719 1415.5293 780.29492 C 1496.0738 779.95677 1576.5977 780.10567 1657.1211 780 C 1660.1011 780 1663.6098 781.52003 1666.2305 778.24414 C 1665.2794 775.91932 1664.3485 773.57357 1663.334 771.29102 C 1608.2568 647.63159 1553.2221 523.95219 1497.9336 400.39844 C 1494.5732 392.8956 1494.3826 386.85014 1497.9121 379.32617 C 1509.1981 355.25369 1519.5556 330.738 1530.5879 306.51758 C 1532.2575 302.86127 1532.6593 298.12622 1537.3301 295.48438 C 1538.9152 298.92934 1540.414 302.07818 1541.8301 305.26953 C 1610.835 460.27179 1679.8838 615.25305 1748.6562 770.33984 C 1751.8476 777.54679 1755.4189 780.33719 1763.6191 780.29492 C 1843.0647 779.93563 1922.5096 780.08398 2001.9551 780.08398 C 2014.2132 780.08398 2014.2129 780.06213 2009.373 769.17773 C 1900.5291 524.64868 1791.6648 280.14164 1682.9688 35.570312 C 1677.7696 23.903931 1670.7747 12.892198 1668.4922 0 L 1406.3145 0 C 1401.4746 2.53617 1399.4886 7.2500464 1397.502 11.857422 C 1388.5831 32.654016 1379.2843 53.280832 1370.2598 74.035156 C 1368.3576 78.388915 1367.2586 83.460936 1362.2285 86.884766 C 1354.1762 71.562072 1349.2097 55.627634 1340.9883 41.382812 C 1329.2374 21.030048 1314.5689 3.804255 1289.334 0 L 829.99219 0 z M 1059.4727 116.47266 C 1093.3094 116.64173 1117.8251 133.29686 1131.6895 164.11133 C 1164.4483 236.94168 1196.7003 310.00468 1229.3535 382.89844 C 1231.6149 387.92851 1231.5723 391.90122 1229.332 396.91016 C 1196.7211 469.76164 1164.4058 542.78328 1131.7949 615.63477 C 1117.9094 646.63944 1092.8661 661.60236 1059.6211 664.01172 C 1027.137 661.91938 1001.7113 648.09784 988.03711 618.00195 C 954.45399 544.05146 921.78012 469.67851 888.53516 395.58008 C 886.50622 391.07838 887.03467 387.58933 888.89453 383.42578 C 921.58999 310.17274 953.92537 236.7301 986.95898 163.625 C 1000.8445 132.91621 1025.5725 116.30358 1059.4727 116.47266 z "
   transform="matrix(0.4731544,0,0,0.4731544,441.05593,276.66)" />
		<path
   id="path8"
   style="stroke-width:2.11348"
   class="st1"
   d="M 2084.8438 904.7168 C 2083.0983 904.71407 2081.2967 904.75594 2079.4355 904.8418 C 2054.6022 905.98307 2039.342 918.98118 2034.6289 943.58203 C 2030.6556 964.31522 2030.8047 985.15478 2034.8203 1005.8457 C 2038.3498 1024.0639 2048.3682 1036.7856 2067.5586 1039.998 C 2077.5131 1041.6677 2087.7201 1041.605 2097.7168 1039.8086 C 2113.6735 1036.9343 2124.0297 1027.4231 2129.4824 1012.2695 C 2131.0041 1008.0426 2130.666 1003.098 2134.3223 999.69531 C 2134.3223 981.66737 2134.323 963.61779 2134.3652 945.58984 C 2130.7723 944.72332 2132.1871 941.44746 2131.5742 939.33398 C 2124.4016 914.90353 2111.0249 904.75766 2084.8438 904.7168 z M 2082.8164 928.32227 C 2092.8554 928.19546 2096.5552 935.04435 2098.1191 943.39258 C 2101.9234 963.72421 2101.9027 984.11759 2097.9082 1004.4492 C 2096.2808 1012.734 2091.7564 1018.6321 2082.8164 1018.5898 C 2074.2991 1018.5476 2070.1779 1012.4599 2068.2969 1004.957 C 2065.6339 994.41079 2065.6553 983.59055 2065.127 969.9375 C 2065.761 963.11098 2066.0569 953.34623 2067.7266 943.81445 C 2069.1426 935.76211 2072.7351 928.42794 2082.8164 928.32227 z "
   transform="matrix(0.4731544,0,0,0.4731544,441.05593,276.66)" />
		
		
		<path
   id="path14"
   d="m 1276.34,711.91 c 11.3,-10.16 23.31,-9.22 29.96,1.66 4.21,-7.35 10.76,-9.69 18.67,-8.49 7.3,1.11 11.79,6.05 11.99,14.31 0.38,15.34 0.15,30.7 0.16,46.04 0,0.51 0.16,1.35 -0.07,1.48 -4.37,2.49 -9.12,0.73 -13.69,1.11 -3.28,0.27 -2.07,-2.53 -2.08,-4.07 -0.1,-11.94 -0.05,-23.88 -0.06,-35.82 0,-1.53 -0.05,-3.07 -0.15,-4.6 -0.24,-3.4 -1.61,-6.1 -5.35,-6.35 -3.52,-0.24 -6.22,1.31 -7.69,4.74 -0.85,1.97 -0.78,3.99 -0.78,6.03 -0.02,11.94 -0.1,23.88 0.05,35.81 0.04,3.08 -0.42,4.43 -4.06,4.43 -12.23,-0.03 -12.24,0.14 -12.24,-11.97 0,-10.4 -0.03,-20.81 0.02,-31.21 0.02,-3.94 -0.84,-7.24 -5.42,-7.87 -3.95,-0.54 -7.2,2.11 -8.17,6.76 -1.33,6.41 -0.44,12.92 -0.57,19.38 -0.15,7.16 -0.16,14.33 0.03,21.49 0.07,2.73 -0.84,3.33 -3.46,3.39 -12.33,0.28 -12.33,0.36 -12.33,-11.87 0,-15.01 0.11,-30.02 -0.08,-45.02 -0.05,-3.59 0.51,-5.48 4.62,-4.83 2,0.32 4.12,0.26 6.13,0.01 3.58,-0.44 5.62,0.52 4.57,5.46 z"
   class="st1" />
		<path
   id="path16"
   style="stroke-width:2.11348"
   class="st2"
   d="M 653.76953 865.65234 C 646.50683 865.78005 644.41293 868.30743 644.49219 876.33203 C 644.91488 923.5682 644.70312 970.8029 644.70312 1018.0391 C 644.70312 1038.6243 644.70215 1038.3085 665.54102 1038.7734 C 673.3186 1038.9425 679.30036 1038.7302 677.50391 1027.9727 C 704.49298 1053.5034 740.46495 1040.4841 744.83984 1003.1602 C 747.35488 981.62385 747.39725 960.23553 743.7832 938.69922 C 738.09796 904.86248 703.41481 893.74596 678.66602 918.17773 L 678.66602 889.41406 C 678.66602 865.76428 678.66605 866.16544 655.29102 865.6582 C 654.76001 865.64631 654.25371 865.64383 653.76953 865.65234 z M 695.48828 930.91602 C 695.74608 930.9128 696.00664 930.91461 696.27148 930.92188 C 704.76765 931.17549 709.01611 936.84085 710.58008 944.57617 C 712.50334 954.12908 713.51685 963.76665 712.88281 973.50977 C 713.45345 983.25289 712.60922 992.91089 710.47461 1002.4004 C 708.74156 1010.03 704.76792 1015.5664 695.93359 1015.5664 C 687.16267 1015.5664 682.68256 1010.3037 681.20312 1002.5684 C 677.44114 982.99758 677.39936 963.30125 681.35156 943.73047 C 682.88713 936.11403 687.49659 931.01581 695.48828 930.91602 z "
   transform="matrix(0.4731544,0,0,0.4731544,441.05593,276.66)" />
		<path
   id="path18"
   style="stroke-width:2.11348"
   class="st1"
   d="M 1977.4648 904.59766 C 1973.639 904.68663 1969.6727 905.33019 1965.6465 906.55469 C 1958.5241 908.71043 1954.2336 914.45867 1947.5762 920.46094 C 1949.9221 909.63995 1945.6315 907.29448 1937.6426 908.33008 C 1933.3734 908.87958 1928.9141 908.94299 1924.666 908.33008 C 1916.8039 907.20994 1915.2823 910.46382 1915.3457 917.83984 C 1915.6839 963.27956 1915.5137 1008.699 1915.5137 1054.1387 C 1915.5137 1080.4937 1915.5152 1080.1551 1941.9336 1079.9648 C 1949.1828 1079.9226 1950.091 1077.2177 1949.9219 1071.1309 C 1949.5203 1057.5835 1949.7949 1044.0347 1949.7949 1031.375 C 1952.162 1029.4729 1952.6685 1030.9118 1953.4082 1031.4824 C 1976.0435 1050.1867 2005.3794 1041.6689 2012.9668 1013.3906 C 2020.1949 986.48609 2020.0038 959.09399 2012.7969 932.18945 C 2007.9887 914.21039 1994.0435 904.21209 1977.4648 904.59766 z M 1966.7656 931.00781 C 1973.888 931.05008 1978.9816 935.00113 1980.5879 942.27148 C 1985.1319 962.87787 1985.0906 983.52608 1980.6523 1004.1113 C 1979.1306 1011.1703 1974.6495 1015.3774 1967.041 1015.5254 C 1958.9887 1015.6733 1954.4228 1011.3831 1952.3516 1003.9648 C 1949.5406 993.79903 1949.7107 983.37842 1949.8164 972.95898 C 1949.6896 962.89884 1949.6895 952.86086 1952.2891 943.0332 C 1954.2757 935.53037 1959.0514 930.96554 1966.7656 931.00781 z "
   transform="matrix(0.4731544,0,0,0.4731544,441.05593,276.66)" />
		<path
   id="path20"
   d="m 441.16,727.5 c -0.19,-8.77 -0.04,-16.8 2.04,-24.61 3.09,-11.62 10.99,-17.69 23.05,-17.88 2.73,-0.04 5.48,-0.08 8.19,0.17 12.57,1.15 22.45,14.72 19.85,27.02 -0.27,1.28 -0.81,1.76 -1.96,1.79 -1.2,0.03 -2.39,0.03 -3.59,0.02 -3.41,-0.05 -7.37,0.95 -10.08,-0.46 -2.78,-1.45 -1.13,-5.88 -1.98,-8.91 -1.22,-4.35 -3.39,-7.26 -8.42,-7.39 -5.11,-0.13 -7.71,2.84 -8.56,7.15 -2.96,15.03 -3.01,30.14 -0.18,45.21 0.88,4.69 3.59,7.65 8.77,7.59 5.24,-0.06 7.5,-3.39 8.61,-7.89 0.49,-1.98 0.87,-4.01 1.03,-6.04 0.56,-6.72 0.51,-6.73 7.55,-6.73 9.87,0 10,0.02 8.83,9.68 -1.08,8.98 -3.82,17.39 -13.22,20.82 -9.99,3.65 -20.21,3.73 -29.46,-2.36 -6.28,-4.14 -8.35,-10.96 -9.48,-18.01 -1.03,-6.6 -1.26,-13.25 -0.99,-19.17 z"
   class="st2" />
		<path
   id="path22"
   style="stroke-width:2.11348"
   class="st2"
   d="M 1307.0996 904.64844 C 1304.9307 904.63523 1302.7643 904.71443 1300.6191 904.92578 C 1284.5567 906.51089 1270.0169 910.80139 1263.127 927.60352 C 1255.92 945.18763 1258.2658 948.86523 1276.6953 948.86523 C 1278.1536 948.86523 1279.6113 948.67537 1281.0273 948.88672 C 1287.6003 949.88005 1290.6664 947.68191 1291.2793 940.49609 C 1292.0613 931.34475 1298.4856 927.92161 1307.2988 928.25977 C 1315.013 928.55565 1319.1543 932.57033 1320.3379 940.00977 C 1321.6905 948.5482 1319.304 955.10069 1310.4062 957.76367 C 1303.5163 959.83488 1296.4771 961.4615 1289.5449 963.38477 C 1261.9852 971.03555 1252.645 985.40725 1256.8086 1013.6855 C 1259.4927 1031.8403 1269.9121 1040.5063 1288.4473 1040.8867 C 1301.424 1041.1615 1312.6665 1038.2232 1320.2539 1026.6836 C 1323.7411 1031.0796 1321.0147 1038.8777 1329.3418 1038.6875 C 1338.3241 1038.4973 1347.2854 1038.6465 1357.4512 1038.6465 C 1352.3154 1025.9656 1353.3095 1013.6853 1353.2461 1001.5117 C 1353.2038 983.48378 1353.3091 965.47716 1353.2246 947.44922 C 1353.1189 918.07192 1342.8693 907.06039 1313.5977 904.92578 C 1311.4419 904.76727 1309.2686 904.66165 1307.0996 904.64844 z M 1318.9707 975.875 C 1320.3218 975.87983 1320.6629 977.84352 1320.6973 979.32031 C 1320.7607 982.93435 1320.7188 986.52805 1320.7188 992.00195 C 1320.5919 997.96195 1321.8596 1006.077 1315.498 1012.502 C 1309.0308 1019.0115 1298.3794 1020.5331 1293.0957 1015.5664 C 1286.3749 1009.2471 1286.9239 992.48732 1294.1309 985.93555 C 1300.8306 979.84874 1310.299 980.37839 1317.8652 976.21484 C 1318.2932 975.97708 1318.6589 975.87389 1318.9707 975.875 z "
   transform="matrix(0.4731544,0,0,0.4731544,441.05593,276.66)" />
		<path
   id="path24"
   style="stroke-width:2.11348"
   class="st2"
   d="M 403.95508 904.82031 C 400.70846 904.86228 397.44846 905.01721 394.21484 905.17969 C 378.51172 905.98281 364.47671 911.30988 357.75586 927.5625 C 357.07955 929.23215 356.46727 930.94273 356.02344 932.67578 C 352.51507 946.77266 354.14295 948.86523 368.45117 948.86523 C 371.70592 948.86523 374.95974 948.73878 378.19336 948.88672 C 382.65279 949.1192 385.48522 948.56917 385.6543 942.71484 C 385.92905 933.47896 391.00242 928.30134 400.83008 928.2168 C 409.72781 928.13226 414.18629 932.88816 415.41211 941.00391 C 416.82814 950.43 412.11453 955.98852 403.2168 958.48242 C 391.82517 961.67377 380.03207 963.63868 369.33789 969.07031 C 347.78045 980.01811 343.744 1020.1108 362.74414 1035.0742 C 366.78088 1038.2656 371.40918 1040.401 376.54492 1040.6758 C 391.23357 1041.4366 405.73213 1041.3944 415.75 1025.332 C 416.21496 1037.5056 422.32271 1039.8305 431.55859 1038.7949 C 437.92015 1038.0763 444.42991 1038.6465 451.76367 1038.6465 C 447.00835 1025.5641 448.38141 1012.9037 448.29688 1000.3496 C 448.17007 983.04025 448.51003 965.73158 448.17188 948.44336 C 447.98166 938.40435 448.29822 927.79479 441.76758 919.4043 C 431.80783 906.594 418.02376 904.63846 403.95508 904.82031 z M 415.66602 975.51758 C 415.66602 984.37304 416.23616 992.52969 415.51758 1000.582 C 414.60878 1010.7478 406.89491 1017.913 397.23633 1018.6738 C 389.96597 1019.2445 385.86537 1015.3124 383.98438 1008.6973 C 380.72962 997.26337 384.23922 987.03569 393.62305 982.93555 C 400.38617 979.95555 407.67708 978.13829 415.66602 975.51758 z "
   transform="matrix(0.4731544,0,0,0.4731544,441.05593,276.66)" />
		<path
   id="path26"
   style="stroke-width:2.11348"
   class="st1"
   d="M 178.33203 904.66016 C 175.98673 904.67039 173.6364 904.77889 171.28516 904.99023 C 150.17154 906.87123 137.27968 916.27612 133.05273 932.61328 C 129.35415 946.81583 130.89615 948.86523 145.16211 948.86523 C 148.77615 948.86523 152.38951 948.69686 155.98242 948.9082 C 160.42072 949.18295 162.32381 947.70349 162.53516 942.88477 C 162.97899 932.9303 168.53696 928.0692 178.68164 928.23828 C 187.07214 928.38622 191.21489 933.14239 192.39844 940.6875 C 193.94127 950.62083 188.95344 956.11582 179.52734 958.63086 C 169.12905 961.42065 158.4777 963.78763 148.62891 967.95117 C 125.73997 977.63089 119.8858 1017.4048 138.48438 1034.0801 C 142.8804 1038.0323 148.16395 1040.3998 154.06055 1040.7168 C 168.66466 1041.4988 182.95019 1041.076 191.50977 1027.2539 C 195.94806 1030.6355 192.63163 1039.0049 201.29688 1038.709 C 210.21574 1038.4131 219.15532 1038.6465 228.89844 1038.6465 C 225.05191 1028.7132 225.03105 1019.392 225.13672 1010.0293 C 225.24239 988.07029 225.41077 966.11135 225.09375 944.15234 C 224.75559 922.21447 216.9778 911.20331 199.22461 907.08203 C 192.3611 905.48107 185.36792 904.62944 178.33203 904.66016 z M 192.60938 975.11523 C 192.60938 984.20318 192.96922 992.04468 192.52539 999.82227 C 191.93362 1010.1149 185.02248 1017.1936 175.04688 1018.5039 C 167.83993 1019.455 163.48638 1016.0315 161.24609 1009.4375 C 157.61092 998.70105 161.03482 987.75331 169.86914 983.23047 C 173.3141 981.47628 177.32876 980.88492 181.02734 979.5957 C 184.3455 978.43329 187.60044 977.05963 192.60938 975.11523 z "
   transform="matrix(0.4731544,0,0,0.4731544,441.05593,276.66)" />
		<path
   id="path28"
   style="stroke-width:2.11348"
   class="st1"
   d="M 576.31641 904.66992 C 568.68148 904.63558 561.03004 905.76227 553.40039 908.09766 C 540.95202 911.90191 533.32297 920.2498 529.94141 932.63477 C 526.07375 946.75278 527.68026 948.88672 541.88281 948.88672 C 545.11643 948.88672 548.39103 948.65494 551.60352 948.92969 C 556.67586 949.37352 559.46575 948.46452 559.40234 942.1875 C 559.33894 935.04395 563.37662 929.71675 570.79492 928.5332 C 578.9318 927.24398 585.9478 928.977 588.69531 938.21289 C 591.35829 947.19516 587.74524 955.03743 578.7207 957.89062 C 567.43475 961.4624 555.55572 963.21637 544.75586 968.26758 C 521.80352 979.00403 516.71179 1018.0403 536.00781 1034.5254 C 540.2559 1038.1606 545.13652 1040.3994 550.67383 1040.6953 C 565.21454 1041.4984 579.45985 1041.1618 590.49219 1024.0215 C 589.13956 1039.5767 597.2975 1039.1951 605.83594 1038.709 C 611.92275 1038.3708 618.05144 1038.6465 625.76562 1038.6465 C 621.53868 1028.058 621.96129 1017.9765 621.98242 1007.9375 C 621.96129 985.25991 622.17276 962.56075 621.51758 939.9043 C 620.98921 921.91862 614.31147 912.8105 599.13672 908.20312 C 591.57048 905.89944 583.95133 904.70427 576.31641 904.66992 z M 589.45703 975.2207 L 589.45703 998.5332 C 589.45703 998.89249 589.45668 999.25008 589.43555 999.60938 C 588.54789 1010.2402 581.06586 1018.0177 570.87891 1018.7363 C 563.46061 1019.2647 559.74127 1014.9756 557.79688 1008.4238 C 554.62666 997.70851 557.9027 987.43733 566.7793 983.29492 C 573.56355 980.16698 580.87632 978.22184 589.45703 975.2207 z "
   transform="matrix(0.4731544,0,0,0.4731544,441.05593,276.66)" />
		<path
   id="path30"
   style="stroke-width:2.11348"
   class="st1"
   d="M 1134.1387 904.54688 C 1126.8181 904.48875 1119.4953 905.46601 1112.2461 907.48438 C 1100.0513 910.88707 1091.4283 918.76948 1087.9199 931.28125 C 1083.2914 947.76635 1084.1792 948.84375 1101.1504 948.84375 C 1103.6654 948.84375 1106.2229 948.6331 1108.7168 948.88672 C 1113.8103 949.39395 1116.347 948.16828 1116.8965 942.16602 C 1117.7841 932.4863 1123.6584 927.56197 1133.8242 928.23828 C 1141.5595 928.76665 1145.5754 932.90983 1146.5898 940.32812 C 1147.9425 950.11351 1143.9482 956.00945 1134.2051 958.58789 C 1123.4475 961.44108 1112.4353 964.01964 1102.2695 968.39453 C 1079.6765 978.15879 1074.6891 1019.1597 1093.7949 1034.7148 C 1098.6348 1038.667 1104.2993 1040.5486 1110.7031 1040.8867 C 1124.8211 1041.6476 1137.734 1039.5128 1147.9844 1025.0566 C 1147.8998 1036.9344 1152.6342 1039.5769 1160.9824 1038.7949 C 1168.1048 1038.1186 1175.3537 1038.6465 1183.5117 1038.6465 C 1179.7286 1028.3327 1179.0749 1018.3989 1179.1172 1008.2754 C 1179.244 984.85809 1179.4336 961.44074 1178.8418 938.02344 C 1178.4191 921.34812 1171.2115 912.2817 1156.0156 907.82227 C 1148.777 905.69822 1141.4592 904.605 1134.1387 904.54688 z M 1146.6328 975.34766 C 1146.6328 984.75262 1146.7163 992.61479 1146.5684 1000.498 C 1146.5261 1002.6115 1146.1453 1004.831 1145.3633 1006.7754 C 1141.9183 1015.1448 1134.7962 1018.5684 1126.4902 1018.5684 C 1119.9596 1018.5684 1116.642 1013.7912 1115.3105 1007.4297 C 1113.345 997.87678 1114.2117 989.00147 1123.4688 984.01367 C 1130.253 980.33623 1138.0098 978.4756 1146.6328 975.34766 z "
   transform="matrix(0.4731544,0,0,0.4731544,441.05593,276.66)" />
		<path
   id="path32"
   style="stroke-width:2.11348"
   class="st1"
   d="M 1668.2637 903.41016 C 1644.8576 903.346 1622.8612 919.65036 1618.4863 945.125 C 1615.8445 960.53223 1615.9724 975.98214 1616.9023 991.43164 C 1619.1849 1029.1994 1640.9106 1046.3389 1678.3613 1040.3789 C 1699.5595 1037.0185 1712.9794 1021.8857 1713.7402 1000.4551 C 1713.8248 998.10912 1715.0722 994.6229 1711.2891 994.49609 C 1702.6661 994.17907 1693.79 993.39641 1685.4629 995.04492 C 1681.5741 995.80577 1682.4201 1003.098 1680.8984 1007.3672 C 1678.4891 1014.1092 1673.9865 1018.6731 1666.6738 1018.6309 C 1659.805 1018.5886 1655.6617 1014.1293 1653.2734 1007.8945 C 1650.3991 1000.3283 1650.4426 992.40279 1650.041 984.51953 C 1649.8085 979.80648 1651.8376 978.2228 1656.4238 978.34961 C 1665.4484 978.58209 1674.452 978.41211 1683.4766 978.41211 C 1720.9273 978.41211 1720.9692 978.41192 1713.6777 940.85547 C 1712.5787 935.19136 1710.5503 929.82324 1707.8027 924.6875 C 1704.8227 919.12906 1700.6594 914.7537 1695.418 911.43555 C 1686.799 905.96693 1677.4226 903.43526 1668.2637 903.41016 z M 1667.3496 928.28125 C 1677.8747 928.38692 1684.4485 937.30434 1683.2227 952.98633 C 1682.2716 965.20221 1671.6203 954.7843 1666.6113 959.45508 C 1661.856 954.65749 1650.8013 965.6041 1650.3574 952.41602 C 1649.8713 937.22013 1656.8879 928.17558 1667.3496 928.28125 z "
   transform="matrix(0.4731544,0,0,0.4731544,441.05593,276.66)" />
		<path
   id="path34"
   style="stroke-width:2.11348"
   class="st2"
   d="M 869.69336 904.77344 C 843.68038 904.86599 827.05601 916.23697 821.89648 939.29102 C 816.73961 962.34903 816.824 985.87237 821.76953 1008.9727 C 825.38357 1025.9439 836.5434 1036.765 854.04297 1039.6816 C 860.72155 1040.8018 867.67543 1040.8449 874.50195 1040.6758 C 898.82805 1040.1051 914.74154 1024.0843 915.88281 999.7793 C 916.05189 996.20752 915.62993 994.19992 911.67773 994.24219 C 903.7522 994.32673 895.48721 993.05776 887.98438 994.89648 C 882.42594 996.27024 884.51923 1004.2818 882.25781 1009.0371 C 879.46803 1014.9337 875.24006 1018.3996 869.08984 1018.5898 C 862.74942 1018.7801 858.41738 1015.1017 855.90234 1009.2051 C 853.17596 1002.8012 852.6694 996.03781 851.92969 989.23242 C 851.06316 981.30689 852.98642 977.18545 862.20117 978.24219 C 869.68287 979.08758 877.33255 978.41211 884.91992 978.41211 C 923.27949 978.41211 923.27928 978.41124 915.83984 941.4043 C 910.97885 917.28955 896.77768 905.3906 872.24023 904.79883 C 871.38164 904.77835 870.53249 904.77045 869.69336 904.77344 z M 869.13672 928.27148 C 879.81585 928.22918 886.08642 936.68341 885.02539 953.47266 C 884.34908 964.31478 874.31083 955.58672 869.13281 959.41211 C 864.39863 954.27637 852.73275 966.28103 852.16211 952.09961 C 851.61261 938.02387 858.79734 928.57714 868.625 928.28125 C 868.79672 928.2763 868.96721 928.27216 869.13672 928.27148 z "
   transform="matrix(0.4731544,0,0,0.4731544,441.05593,276.66)" />
		<path
   id="path36"
   d="m 577.68,769.1 c -3.45,0.29 -7.18,-0.19 -10.8,-1.24 -7.73,-2.26 -12.73,-10.71 -11.13,-18.49 0.18,-0.9 0.26,-1.71 1.37,-1.71 3.93,-0.01 7.87,-0.21 11.77,0.13 2.17,0.19 1.14,2.47 1.39,3.8 1.16,6.02 7.1,8.91 12.47,5.97 4.47,-2.45 4.57,-9.22 -0.17,-11.68 -4.2,-2.18 -8.81,-3.57 -13.25,-5.26 -9.66,-3.69 -14.1,-10 -13.2,-18.83 0.92,-9.11 6.31,-14.44 16.21,-16.38 5.14,-1.01 10.21,-0.76 15.23,0.39 8,1.83 12.73,8.29 12.5,16.42 -0.06,2.12 -0.47,3.15 -2.81,2.93 -1.86,-0.18 -3.77,-0.17 -5.63,-0.01 -3.61,0.32 -6.32,0.13 -6.67,-4.7 -0.27,-3.68 -3.36,-4.81 -6.83,-4.53 -3.17,0.26 -5.65,1.62 -6.41,4.88 -0.8,3.47 0.72,6.11 3.93,7.42 3.94,1.6 8.03,2.82 12.04,4.24 11.23,3.96 15.01,10.17 13.36,21.96 -1.16,8.29 -8.76,14.2 -18.93,14.71 -1.35,0.04 -2.72,-0.02 -4.44,-0.02 z"
   class="st2" />
		<path
   id="path38"
   d="m 1150.55,738.88 c 0,-5.62 -0.18,-11.25 0.07,-16.87 0.14,-3.29 -0.37,-5.21 -4.27,-4.61 -5.99,0.92 -3.54,-3.69 -3.99,-6.33 -0.55,-3.21 0.17,-5.36 4.14,-4.58 3.54,0.69 4.53,-1.09 4.06,-4.26 -0.07,-0.5 -0.01,-1.02 -0.01,-1.53 0.01,-12.7 0,-12.63 13.01,-11.67 2.2,0.16 3.05,0.79 2.92,2.98 -0.13,2.21 0.14,4.44 -0.06,6.64 -0.46,5.03 -0.36,9.39 6.78,7.88 0.77,-0.16 2.09,-0.2 2.15,0.79 0.2,3.03 0.66,6.22 -0.06,9.08 -0.51,2.06 -3.32,1.01 -5.05,0.95 -2.79,-0.09 -3.91,0.68 -3.86,3.71 0.18,9.88 0.08,19.76 0.06,29.65 -0.01,4.04 1.47,6.8 5.98,6.21 3.06,-0.4 3.26,1.01 3.3,3.43 0.14,7.6 0.22,7.62 -7.27,7.88 -2.21,0.08 -4.44,0.04 -6.65,-0.08 -8.05,-0.43 -10.98,-3.3 -11.22,-11.39 -0.18,-5.95 -0.03,-11.92 -0.03,-17.88 z"
   class="st2" />
		<path
   id="path40"
   d="m 924.83,738.86 c 0,-5.62 -0.19,-11.25 0.07,-16.86 0.16,-3.45 -0.72,-5.12 -4.45,-4.59 -5.64,0.81 -3.5,-3.48 -3.79,-6.04 -0.31,-2.76 -0.56,-5.7 3.85,-4.88 3.79,0.7 4.84,-1.22 4.33,-4.59 -0.05,-0.33 -0.01,-0.68 -0.01,-1.02 0.02,-11.98 0.02,-11.85 11.82,-11.87 3.27,-0.01 4.73,0.74 4.3,4.21 -0.25,2.01 0.16,4.11 -0.09,6.12 -0.6,4.95 0.18,8.42 6.45,7.18 2.12,-0.42 2.6,0.87 2.48,2.7 -0.1,1.53 -0.17,3.08 0.01,4.59 0.38,3.01 -0.98,4.07 -3.77,3.6 -4.43,-0.75 -5.36,1.28 -5.23,5.38 0.3,9.19 0.16,18.39 0.07,27.59 -0.04,4.27 1.29,7.12 6.12,6.54 2.45,-0.29 2.95,0.68 2.81,2.8 -0.13,1.86 -0.17,3.76 0.01,5.62 0.22,2.36 -0.83,2.87 -2.96,2.8 -3.91,-0.14 -7.84,0.15 -11.75,-0.06 -6.68,-0.36 -9.63,-3.09 -10,-9.81 -0.35,-6.45 -0.08,-12.93 -0.08,-19.4 -0.05,-0.01 -0.12,-0.01 -0.19,-0.01 z"
   class="st2" />
		<path
   id="path42"
   d="m 1108.68,727.14 c 0,12.45 -0.09,24.9 0.07,37.34 0.04,2.89 -0.79,3.66 -3.68,3.69 -12.11,0.16 -12.11,0.26 -12.11,-11.58 0,-21.83 0.09,-43.66 -0.09,-65.48 -0.03,-3.73 0.75,-4.95 4.73,-4.86 11.08,0.23 11.08,0.02 11.08,11.21 0,9.9 0,19.79 0,29.68 z"
   class="st1" />
		<path
   id="path44"
   d="m 898.44,713.66 c 3.87,-4.84 7.41,-8.15 12.75,-8.81 0.67,-0.08 1.36,-0.05 2.04,-0.06 4.34,-0.09 3,3.48 2.55,5.11 -0.94,3.39 3.4,9.15 -2.47,10.02 -11.8,1.76 -13.93,3.45 -13.93,15.36 0,9.71 -0.1,19.43 0.06,29.14 0.04,2.77 -0.58,3.72 -3.58,3.76 -12.39,0.16 -12.39,0.28 -12.39,-11.88 0,-15 0.11,-29.99 -0.08,-44.99 -0.05,-3.62 0.59,-5.57 4.67,-4.85 1.16,0.2 2.39,0.11 3.58,0.02 4.59,-0.34 9.17,-0.73 6.8,7.18 z"
   class="st3" />
		<path
   id="path46"
   d="m 1181.3,736.85 c 0,-8.85 0.08,-17.7 -0.05,-26.55 -0.04,-2.61 0.29,-3.84 3.46,-3.89 12.83,-0.23 12.82,-0.36 12.82,12.49 0,14.98 -0.08,29.96 0.06,44.93 0.03,3.13 -0.54,4.38 -4.1,4.38 -12.2,-0.03 -12.2,0.13 -12.2,-11.95 0.01,-6.48 0.01,-12.94 0.01,-19.41 z"
   class="st2" />
		<path
   id="path48"
   d="m 803.86,736.86 c 0,-8.69 0.2,-17.38 -0.09,-26.05 -0.13,-3.71 1.09,-4.45 4.57,-4.4 11.25,0.14 11.25,0 11.25,11.43 0,15.16 -0.1,30.32 0.07,45.47 0.04,3.49 -0.35,5.03 -4.55,4.92 -11.24,-0.3 -11.24,-0.05 -11.24,-11.44 -0.01,-6.64 -0.01,-13.28 -0.01,-19.93 z"
   class="st1" />
		<path
   id="path50"
   d="m 1189.86,685.33 c 7.68,0 7.68,0 7.68,6.85 0,7.16 0,7.16 -7.89,7.16 -8.36,0 -8,-0.02 -8.49,-8.12 -0.3,-5.07 1.3,-6.79 6.14,-5.91 0.83,0.15 1.71,0.02 2.56,0.02 z"
   class="st4" />
		<path
   id="path52"
   d="m 811.63,699.34 c -7.78,0 -7.45,-0.02 -7.9,-7.72 -0.29,-5.04 0.95,-6.71 6.29,-6.43 9.65,0.51 9.51,0.15 9.64,9.66 0.05,3.48 -0.78,5.09 -4.46,4.52 -1.16,-0.19 -2.37,-0.03 -3.57,-0.03 z"
   class="st5" />
		<path
   id="path54"
   d="m 677.19,290.99 c 30,0 59.21,0.07 88.42,-0.09 3.3,-0.02 3.83,1.91 4.8,4.09 31.35,70.45 62.72,140.89 94.09,211.33 9.89,22.2 19.73,44.43 29.7,66.6 9.19,20.44 25.1,31.79 47.51,32.04 22.68,0.25 39.01,-10.92 48.35,-31.53 13.7,-30.2 27.03,-60.57 40.53,-90.87 0.41,-0.93 0.88,-1.83 1.61,-3.35 5.86,13.16 11.51,25.84 17.16,38.52 8.94,20.06 17.81,40.15 26.88,60.15 1.32,2.91 1.34,5.18 -0.02,8.09 -4.55,9.7 -8.82,19.54 -13.08,29.37 -4.66,10.73 -11.84,16.07 -24.46,15.98 -64.92,-0.48 -129.85,-0.38 -194.77,-0.07 -10.88,0.05 -17.37,-4.86 -21.52,-13.98 -7.88,-17.31 -15.59,-34.71 -23.32,-52.08 -40.05,-89.94 -80.08,-179.88 -120.12,-269.83 -0.54,-1.24 -1,-2.5 -1.76,-4.37 z"
   class="st0" />
		
		<path
   id="path58"
   d="m 1207.47,290.99 c -22.72,51.02 -45.09,101.26 -67.75,152.15 -7.94,-17.83 -15.59,-35.04 -23.26,-52.25 -6.99,-15.68 -13.97,-31.37 -21.04,-47.02 -1.04,-2.3 -1.34,-4.24 -0.22,-6.7 6.49,-14.2 12.81,-28.49 19.15,-42.76 0.83,-1.87 1.33,-3.5 4.15,-3.49 29.38,0.12 58.74,0.07 88.97,0.07 z"
   class="st0" />
		
		
		
		
		
		
		
		
		
		
	</g>
</g>
</svg>
